<svg xmlns="http://www.w3.org/2000/svg" viewBox="0 0 480 103.6" width="480px" height="103.6px"><defs><style>#symbol{fill:#4eaace}#big,#small{fill:#39373A}#small{display:none}@media screen and (max-width: 200px){#big{display:none}#small{display:block}}</style></defs><path id="symbol" d="M71.4,85.35a4.55,4.55,0,0,0-4.53,4.53,4.5,4.5,0,0,0,4.53,4.48,4.45,4.45,0,0,0,4.47-4.48A4.49,4.49,0,0,0,71.4,85.35Zm29.95-13a58.31,58.31,0,0,1-17.68,28.56c9.27-.39,15.78-6.7,16.77-17.52C100.44,83.34,100.93,79,101.35,72.3ZM48.82,42.46A4.5,4.5,0,1,0,53.29,47,4.48,4.48,0,0,0,48.82,42.46ZM26.67,28.21a4.41,4.41,0,0,0-4.48,4.43,4.51,4.51,0,1,0,9,0A4.45,4.45,0,0,0,26.67,28.21Zm38.42-.35a1.53,1.53,0,0,0-1.58,1.54A1.56,1.56,0,0,0,65.09,31a1.53,1.53,0,0,0,1.54-1.59A1.5,1.5,0,0,0,65.09,27.86Zm0-2.69a4.23,4.23,0,0,1,4.24,4.23,4.26,4.26,0,1,1-4.24-4.23Zm-2.26-.91a7.3,7.3,0,1,0,.23,0Zm.23-2.7a9.85,9.85,0,1,1-9.86,9.86A9.89,9.89,0,0,1,63.06,21.56Zm-2-2.6A16.37,16.37,0,0,0,44.63,35.38a16.1,16.1,0,0,0,1,5,7.25,7.25,0,0,1,3.18-.82A7.51,7.51,0,0,1,56.33,47a7.4,7.4,0,0,1-1.15,3.71,16.07,16.07,0,0,0,5.87,1.16,16.45,16.45,0,1,0,0-32.89Zm0-2.74a19.16,19.16,0,1,1,0,38.31,18.82,18.82,0,0,1-7.76-1.67,7.43,7.43,0,0,1-4.47,1.63A7.51,7.51,0,0,1,41.35,47a7.33,7.33,0,0,1,1.84-4.77,18.87,18.87,0,0,1-1.25-6.83A19.13,19.13,0,0,1,61.05,16.22Zm-6-3.56a28.49,28.49,0,0,0-24.51,14,7.17,7.17,0,0,1,3.61,6,7.55,7.55,0,0,1-7.51,7.5,2.74,2.74,0,0,1-.28,0c0,.43-.06.89-.06,1.3A28.75,28.75,0,1,0,55.08,12.66ZM46,11.35A40.68,40.68,0,0,0,53.1,92.1,40.1,40.1,0,0,0,64,90.6c0-.23-.1-.48-.1-.72a7.51,7.51,0,0,1,7.52-7.46,7.21,7.21,0,0,1,5,2.21,40.47,40.47,0,0,0-1.92-67.79A31.38,31.38,0,1,1,23.64,41.39c0-.63.06-1.29.1-1.92a7.41,7.41,0,0,1,2.93-14.26,6.39,6.39,0,0,1,1.39.2A31.47,31.47,0,0,1,46,11.35ZM53.1,7.93A43.34,43.34,0,0,1,78,86.85a6.92,6.92,0,0,1,.92,3A7.56,7.56,0,0,1,71.4,97.4a7.43,7.43,0,0,1-6.51-4.29A43.41,43.41,0,1,1,53.1,7.93ZM67.83,3.75a58.27,58.27,0,0,1,34,40.44c-.38-12.32-1.38-21.82-1.38-21.82-1-10.82-7.5-17.13-16.77-17.52A152.17,152.17,0,0,0,67.83,3.75ZM53.39,3.51C31.81,3.51,23.1,4.85,23.1,4.85c-9.24.39-15.76,6.7-16.74,17.52,0,0-1.54,14.18-1.54,30.49S6.36,83.34,6.36,83.34c1,10.82,7.5,17.13,16.74,17.52,0,0,8.71,1.35,30.29,1.35,13.08,0,21-.49,25.52-.87A55.52,55.52,0,0,0,59,3.55H59C57.19,3.54,55.4,3.51,53.39,3.51Z"/><path id="big" d="M173.5,7.2c-11.6,0-15.6,8.3-15.6,17.9s4,17.9,15.6,17.9,15.6-8.2,15.6-17.9S185,7.2,173.5,7.2Zm0,28.9c-7.2,0-8.3-5.4-8.3-11s1.1-11,8.3-11,8.3,5.3,8.3,11S180.6,36.1,173.5,36.1Zm25.4-4.6c-.7,2.7-2.7,4.1-5.8,3.9v7c6.5.3,11.2-3.3,12.8-9.2,1.4-5.2,2.2-13.5,2.7-18.2h8.2V42.2h7.3V8.1h-22C201.1,15.8,200.9,24.1,198.9,31.5ZM123.1,42.2h7.3V14.9h12V42.2h7.3V8.1H123.1Zm179.2.1h23.1V35.4H309.5V28.2H323V21.6H309.5V14.9h15.9V8.1H302.3Zm37.8-.1,7.2-12,7.2,12h8.6L351.9,24.4,362.3,8.1h-8.7l-6.3,10.6L341,8.1h-8.7l10.4,16.3L331.5,42.2ZM234.1,8.1V42.2H241l13.5-21v21h7.3V8.1h-6.9l-13.5,21V8.1Zm35.2,6.8h9.4V42.2h7.2V14.9h9.4V8.1h-26Zm-136,39.23.14-1.87h-.1l-1,1.91-7.9,11h-1.14V48.85h1.94V60.06l-.17,1.85h.1l1-1.92,7.89-11.14h1.15V65.2h-1.94ZM146.19,60h-5.28V65.2H139V53.52h1.87V58.4h5.28V53.52h1.87V65.2h-1.87Zm13.43,4.39a5.2,5.2,0,0,1-1.66.78,7.39,7.39,0,0,1-2,.27,5.44,5.44,0,0,1-2.29-.43,4,4,0,0,1-1.53-1.24,5.38,5.38,0,0,1-.86-1.94,10.79,10.79,0,0,1-.27-2.51,6.94,6.94,0,0,1,1.31-4.54,4.6,4.6,0,0,1,3.76-1.58,8.57,8.57,0,0,1,1.9.18,5.54,5.54,0,0,1,1.42.5l-.54,1.61a5.48,5.48,0,0,0-1.19-.48,5.32,5.32,0,0,0-1.4-.17c-2.22,0-3.32,1.49-3.32,4.48a8.35,8.35,0,0,0,.17,1.69,4.27,4.27,0,0,0,.59,1.43,3.08,3.08,0,0,0,1.07,1,3.35,3.35,0,0,0,1.65.38,4.23,4.23,0,0,0,1.51-.26A4.19,4.19,0,0,0,159,63Zm9.62-9.27H165.6v10h-1.87v-10h-3.64V53.52h9.15Zm9.14,3.13.07-1.45h-.07l-1,1.49-5.26,6.87h-1.07V53.52H173v7.13L172.89,62H173l.91-1.44,5.26-7.06h1.1V65.2h-1.87Zm12.89-3.13h-3.64v10h-1.87v-10h-3.65V53.52h9.16Zm5.29,5.93.66,2.24h.11l.52-2.26,2.27-7.55H202L198.53,64q-.39,1.14-.78,2.22a12.58,12.58,0,0,1-.85,1.91,4.94,4.94,0,0,1-1.05,1.35,2,2,0,0,1-1.36.5,3.33,3.33,0,0,1-1.37-.24l.32-1.61a1.59,1.59,0,0,0,.59.12,1.73,1.73,0,0,0,1.26-.69,5.65,5.65,0,0,0,1-2.37L191.6,53.52h2.15Zm14.87-5.93h-3.64v10h-1.87v-10h-3.65V53.52h9.16Zm8.38,3.38h4.93a4.49,4.49,0,0,0-1-2.66,3,3,0,0,0-2.41-1,5,5,0,0,0-1.67.25,5.36,5.36,0,0,0-1.15.56l-.65-1.42a5.62,5.62,0,0,1,1.66-.76,7.8,7.8,0,0,1,2.17-.27,4.39,4.39,0,0,1,3.78,1.61,7.44,7.44,0,0,1,1.2,4.51,6.72,6.72,0,0,1-1.38,4.56,4.85,4.85,0,0,1-3.83,1.56,11.37,11.37,0,0,1-2-.17,5.38,5.38,0,0,1-1.56-.53l.54-1.59a5,5,0,0,0,1.31.48,6.79,6.79,0,0,0,1.53.18c2.17,0,3.33-1.24,3.47-3.77h-5Zm16-3.38h-3.38c0,.65-.1,1.35-.15,2.11s-.11,1.51-.21,2.27a20.43,20.43,0,0,1-.37,2.17,8.54,8.54,0,0,1-.6,1.83,3.72,3.72,0,0,1-.88,1.27,1.8,1.8,0,0,1-1.25.48,5.78,5.78,0,0,1-.77,0,2,2,0,0,1-.59-.17l.28-1.56a2,2,0,0,0,.61.09,1.12,1.12,0,0,0,.84-.4,3.53,3.53,0,0,0,.66-1.5,22.21,22.21,0,0,0,.46-3.07c.13-1.31.21-3,.26-5.12h7V65.2h-1.87Zm14,9.11a5.09,5.09,0,0,1-1.76.88,7.56,7.56,0,0,1-2.25.33,5.72,5.72,0,0,1-2.32-.43,4.13,4.13,0,0,1-1.61-1.24,5.34,5.34,0,0,1-.93-1.93,9.71,9.71,0,0,1-.31-2.52,6.88,6.88,0,0,1,1.33-4.55,4.72,4.72,0,0,1,3.81-1.57,7.18,7.18,0,0,1,1.59.18,3.3,3.3,0,0,1,2.45,2,5.85,5.85,0,0,1,.4,2.37,12.14,12.14,0,0,1-.14,1.71h-7.5a7.17,7.17,0,0,0,.21,1.82,3.44,3.44,0,0,0,.66,1.34,2.73,2.73,0,0,0,1.15.84,4.52,4.52,0,0,0,1.74.3,4.93,4.93,0,0,0,1.59-.28,3.36,3.36,0,0,0,1.19-.66Zm-4-9.39a3.25,3.25,0,0,0-2.21.72,3.6,3.6,0,0,0-1,2.48h5.79a3.58,3.58,0,0,0-.68-2.49A2.49,2.49,0,0,0,245.77,54.88Zm10.3,5.06H255V65.2h-1.87V53.52H255V58.8l1-.33,3.73-4.95h2l-3.62,4.7-1,.77,1.21.93,3.9,5.28H260Zm15.65-4.78h-3.65v10h-1.86v-10h-3.65V53.52h9.16Zm1.84-1.64h1.29l.35,1.4h.09a3.63,3.63,0,0,1,1.39-1.25,4.92,4.92,0,0,1,5.43.95c.77.92,1.15,2.42,1.15,4.51a8.43,8.43,0,0,1-.39,2.65,5.9,5.9,0,0,1-1.08,2,4.94,4.94,0,0,1-1.7,1.26,5.45,5.45,0,0,1-2.21.44,7,7,0,0,1-1.36-.1,5.62,5.62,0,0,1-1.09-.37v4.86h-1.87Zm4.72,1.36a2.73,2.73,0,0,0-1.88.61,3.5,3.5,0,0,0-1,1.89v5.79a3.13,3.13,0,0,0,1,.5,4.59,4.59,0,0,0,1.42.18,3.09,3.09,0,0,0,2.56-1.21,5.64,5.64,0,0,0,.95-3.54,9.2,9.2,0,0,0-.16-1.74,3.9,3.9,0,0,0-.53-1.33,2.53,2.53,0,0,0-.93-.85A3.07,3.07,0,0,0,278.28,54.88Zm7.27,4.48a6.89,6.89,0,0,1,1.32-4.54,4.67,4.67,0,0,1,3.79-1.58,5.55,5.55,0,0,1,2.28.43,4.17,4.17,0,0,1,1.6,1.24,5.31,5.31,0,0,1,.93,1.94,9.33,9.33,0,0,1,.31,2.51,6.89,6.89,0,0,1-1.32,4.54,4.66,4.66,0,0,1-3.8,1.58,5.55,5.55,0,0,1-2.28-.43,4.17,4.17,0,0,1-1.6-1.24,5.31,5.31,0,0,1-.93-1.94A9.76,9.76,0,0,1,285.55,59.36Zm1.93,0a8,8,0,0,0,.18,1.71,4.52,4.52,0,0,0,.55,1.42,3,3,0,0,0,1,1,2.72,2.72,0,0,0,1.47.38c2.12,0,3.18-1.48,3.18-4.49a8.05,8.05,0,0,0-.18-1.73,4.3,4.3,0,0,0-.55-1.42,2.68,2.68,0,0,0-1-1,2.81,2.81,0,0,0-1.47-.36C288.54,54.86,287.48,56.36,287.48,59.36Zm18.39.68h-5.28V65.2h-1.87V53.52h1.87V58.4h5.28V53.52h1.87V65.2h-1.87Zm12.75-1.75.07-1.45h-.07l-1,1.49-5.25,6.87h-1.08V53.52h1.87v7.13L313.13,62h.1l.91-1.44,5.25-7.06h1.1V65.2h-1.87ZM327,59.94H326V65.2h-1.87V53.52H326V58.8l1-.33,3.74-4.95h2l-3.62,4.7-1,.77,1.21.93,3.9,5.28h-2.31Zm15.51-1.65.07-1.45h-.07l-1,1.49-5.25,6.87h-1.08V53.52h1.87v7.13L337.05,62h.1l.91-1.44,5.25-7.06h1.1V65.2h-1.87ZM130.42,82.42l.07-1.44h-.07l-1,1.49-5.25,6.87h-1.08V77.66H125v7.12l-.07,1.38H125l.92-1.45,5.25-7h1.1V89.34h-1.87ZM149,79.29h-3.64v10H143.5v-10h-3.64V77.66H149Zm10,9.11a5.2,5.2,0,0,1-1.76.89,7.58,7.58,0,0,1-2.26.33,5.88,5.88,0,0,1-2.31-.43A4.13,4.13,0,0,1,151.07,88a5.34,5.34,0,0,1-.93-1.93,9.35,9.35,0,0,1-.31-2.52,6.91,6.91,0,0,1,1.33-4.56A4.74,4.74,0,0,1,155,77.38a7.81,7.81,0,0,1,1.59.17,3.51,3.51,0,0,1,1.42.67,3.4,3.4,0,0,1,1,1.39,5.85,5.85,0,0,1,.4,2.37,12,12,0,0,1-.14,1.7h-7.5a7.19,7.19,0,0,0,.21,1.83,3.64,3.64,0,0,0,.65,1.34,2.83,2.83,0,0,0,1.16.84,4.53,4.53,0,0,0,1.74.29,4.68,4.68,0,0,0,1.59-.28,3.21,3.21,0,0,0,1.19-.65ZM155,79a3.19,3.19,0,0,0-2.2.73,3.59,3.59,0,0,0-1,2.47h5.8a3.57,3.57,0,0,0-.68-2.48A2.5,2.5,0,0,0,155,79Zm13.13.28h-3.38c-.05.66-.1,1.36-.15,2.12s-.11,1.51-.21,2.26a20.63,20.63,0,0,1-.37,2.18,9.15,9.15,0,0,1-.59,1.83,4,4,0,0,1-.89,1.27,1.8,1.8,0,0,1-1.25.48,4.38,4.38,0,0,1-.77-.05,2,2,0,0,1-.59-.16l.28-1.56a2,2,0,0,0,.61.09,1.12,1.12,0,0,0,.84-.4,3.53,3.53,0,0,0,.66-1.5,22.15,22.15,0,0,0,.46-3.08c.13-1.3.21-3,.26-5.11h7V89.34h-1.87Zm14,9.11a5.1,5.1,0,0,1-1.76.89,7.56,7.56,0,0,1-2.25.33,5.89,5.89,0,0,1-2.32-.43A4.13,4.13,0,0,1,174.17,88a5.34,5.34,0,0,1-.93-1.93,9.77,9.77,0,0,1-.31-2.52,6.91,6.91,0,0,1,1.33-4.56,4.74,4.74,0,0,1,3.81-1.56,7.81,7.81,0,0,1,1.59.17,3.55,3.55,0,0,1,1.43.67,3.48,3.48,0,0,1,1,1.39,5.85,5.85,0,0,1,.4,2.37,12,12,0,0,1-.14,1.7h-7.5a7.19,7.19,0,0,0,.21,1.83,3.51,3.51,0,0,0,.66,1.34,2.73,2.73,0,0,0,1.15.84,4.53,4.53,0,0,0,1.74.29,4.68,4.68,0,0,0,1.59-.28,3.21,3.21,0,0,0,1.19-.65Zm-4-9.39a3.2,3.2,0,0,0-2.21.73,3.59,3.59,0,0,0-1,2.47h5.79a3.57,3.57,0,0,0-.68-2.48A2.5,2.5,0,0,0,178.1,79Zm10.3,5.07h-1.08v5.26h-1.87V77.66h1.87v5.28l1-.33,3.73-5h2l-3.62,4.69-1,.77,1.21.94,3.9,5.28H192.3Zm7.31-.58A6.89,6.89,0,0,1,197,79a4.64,4.64,0,0,1,3.79-1.58,5.49,5.49,0,0,1,2.28.43,4.1,4.1,0,0,1,1.6,1.24,5.48,5.48,0,0,1,.94,1.94,9.76,9.76,0,0,1,.3,2.51A6.89,6.89,0,0,1,204.62,88a4.67,4.67,0,0,1-3.8,1.58,5.64,5.64,0,0,1-2.27-.43A4.1,4.1,0,0,1,197,88,5.4,5.4,0,0,1,196,86,9.82,9.82,0,0,1,195.71,83.5Zm1.94,0a8.52,8.52,0,0,0,.17,1.7,4.58,4.58,0,0,0,.55,1.43,3.06,3.06,0,0,0,1,1,2.77,2.77,0,0,0,1.47.37c2.12,0,3.18-1.48,3.18-4.48a8.68,8.68,0,0,0-.17-1.73,4.58,4.58,0,0,0-.55-1.43,2.9,2.9,0,0,0-1-1,2.78,2.78,0,0,0-1.48-.37C198.71,79,197.65,80.49,197.65,83.5Zm20.88-1.1.14-2.22h-.12l-.84,1.8-2.82,4.58h-.66L211.29,82l-.77-1.8h-.09l.18,2.2v7h-1.73V77.66h1.85L214,82.89l.68,1.36h0l.7-1.41,3.06-5.18h1.87V89.34h-1.82Zm15.07,0,.14-2.22h-.12l-.84,1.8L230,86.56h-.65L226.36,82l-.78-1.8h-.09l.19,2.2v7H224V77.66h1.84l3.28,5.23.67,1.36h0l.7-1.41,3.06-5.18h1.87V89.34H233.6Zm8.86,2.83.66,2.24h.11l.52-2.27L246,77.66h1.87l-3.45,10.49c-.27.76-.53,1.5-.79,2.22a12.58,12.58,0,0,1-.85,1.91,4.74,4.74,0,0,1-1.05,1.34,2,2,0,0,1-1.36.51,3.33,3.33,0,0,1-1.37-.24l.32-1.61a1.63,1.63,0,0,0,.59.12,1.73,1.73,0,0,0,1.26-.69,5.65,5.65,0,0,0,1-2.37L237.5,77.66h2.15Zm14.59-1h-5.28v5.16H249.9V77.66h1.87v4.88h5.28V77.66h1.87V89.34h-1.87Zm12.75-1.76.07-1.44h-.07l-.95,1.49-5.26,6.87h-1.07V77.66h1.86v7.12l-.07,1.38h.1l.91-1.45,5.25-7h1.1V89.34H269.8Zm8.41,1.66h-1.07v5.26h-1.87V77.66h1.87v5.28l1-.33,3.74-5h2l-3.62,4.69-1,.77,1.21.94,3.9,5.28h-2.31Zm8-5.56a6.91,6.91,0,0,1,2.06-.79,11.69,11.69,0,0,1,2.47-.26,4.82,4.82,0,0,1,2,.33,2.75,2.75,0,0,1,1.12.85,3,3,0,0,1,.52,1.16,6.72,6.72,0,0,1,.12,1.26c0,.93,0,1.84-.07,2.73s-.07,1.73-.07,2.52c0,.58,0,1.13.07,1.64a8.35,8.35,0,0,0,.26,1.42H293.3l-.49-1.63h-.12a3.75,3.75,0,0,1-.52.64,3.19,3.19,0,0,1-.76.56,4.61,4.61,0,0,1-1,.41,4.9,4.9,0,0,1-1.33.16,3.94,3.94,0,0,1-1.39-.23,3.11,3.11,0,0,1-1.11-.67,2.93,2.93,0,0,1-.73-1,3.4,3.4,0,0,1-.27-1.38,3.25,3.25,0,0,1,.42-1.72,3.06,3.06,0,0,1,1.18-1.1,5.9,5.9,0,0,1,1.82-.58,14.12,14.12,0,0,1,2.35-.18H292a4.72,4.72,0,0,1,.64.05,11.93,11.93,0,0,0,.07-1.26,2.51,2.51,0,0,0-.51-1.8,2.67,2.67,0,0,0-1.87-.51,6.41,6.41,0,0,0-.85.06c-.31,0-.62.09-.94.16s-.62.17-.91.27a4.13,4.13,0,0,0-.76.35Zm3.31,9.37a3.51,3.51,0,0,0,1.17-.18,3.08,3.08,0,0,0,.89-.44,2.73,2.73,0,0,0,.62-.6,2.54,2.54,0,0,0,.36-.63V84.11l-.66,0h-.67a13,13,0,0,0-1.41.08,5.07,5.07,0,0,0-1.22.3,2.13,2.13,0,0,0-.84.61,1.48,1.48,0,0,0-.31,1,1.71,1.71,0,0,0,.58,1.34A2.16,2.16,0,0,0,289.56,87.89Zm18.95,4.41h-1.26l-.35-3H298V77.66h1.87v10H305v-10h1.87v10h1.68Zm9.6-9.88.07-1.44h-.07l-1,1.49-5.25,6.87h-1.08V77.66h1.87v7.12l-.07,1.38h.09l.91-1.45,5.26-7H320V89.34h-1.87Zm12.75,0,.07-1.44h-.07l-1,1.49-5.25,6.87h-1.08V77.66h1.87v7.12l-.07,1.38h.1l.91-1.45,5.25-7h1.1V89.34h-1.87Zm-4.6-9.48a2.37,2.37,0,0,0,.81,1.49,2.17,2.17,0,0,0,1.32.43,2.14,2.14,0,0,0,1.33-.45,2.32,2.32,0,0,0,.79-1.45l1.4.45a3.05,3.05,0,0,1-1.2,2.08,3.92,3.92,0,0,1-2.37.72,4.82,4.82,0,0,1-1.25-.16,4,4,0,0,1-1.11-.49,3,3,0,0,1-.84-.85,3,3,0,0,1-.47-1.21Z"/><path id="small" d="M161.71,49.49l.83-9.42H162l-4.86,9.73-27,39.83H119.49V17.2h14.18V56.63l-1,9.72h.62l5.07-10,27-39.12h10.56V89.63H161.71Zm33.94-2.28h27.84a25.51,25.51,0,0,0-1.71-7.61,18.45,18.45,0,0,0-3.78-6,16.4,16.4,0,0,0-5.9-3.88,21.43,21.43,0,0,0-8-1.39,35.14,35.14,0,0,0-9.73,1.19,31.87,31.87,0,0,0-6.73,2.64l-3-12a40.4,40.4,0,0,1,9.11-3.15,46.83,46.83,0,0,1,10.86-1.3,42.58,42.58,0,0,1,13.2,2,25.25,25.25,0,0,1,10.45,6.47,30.85,30.85,0,0,1,6.88,11.69,54,54,0,0,1,2.48,17.54q0,10.76-2.89,18A30.37,30.37,0,0,1,227,83a28.79,28.79,0,0,1-11.18,6.21,46.26,46.26,0,0,1-13.14,1.86,51.1,51.1,0,0,1-10.71-1,37.21,37.21,0,0,1-7.71-2.38L188,75.35a33.13,33.13,0,0,0,6.41,2.13,39.89,39.89,0,0,0,9.31,1,23.37,23.37,0,0,0,7.45-1.14,16.6,16.6,0,0,0,6.06-3.57,18.26,18.26,0,0,0,4.29-6.16,27.61,27.61,0,0,0,2.07-9H195.65ZM295.2,29.82H274.09V89.63H259.91V29.82H238.7V17.2h56.5Z"/></svg>